<svg xmlns="http://www.w3.org/2000/svg" xmlns:xlink="http://www.w3.org/1999/xlink" width="93.156" height="44.22" viewBox="0 0 93.156 44.22">
  <defs>
    <style>
      .cls-1 {
        fill-rule: evenodd;
        fill: url(#linear-gradient);
      }
    </style>
    <linearGradient id="linear-gradient" x1="677.422" y1="1992.78" x2="677.422" y2="2037" gradientUnits="userSpaceOnUse">
      <stop offset="0" stop-color="#7cd844"/>
      <stop offset="1" stop-color="#9be46f"/>
    </linearGradient>
  </defs>
  <path id="Ellipse_2_copy_3" data-name="Ellipse 2 copy 3" class="cls-1" d="M639.12,1992.79a8.29,8.29,0,1,1-8.263,8.29A8.276,8.276,0,0,1,639.12,1992.79Zm24.519,0a8.29,8.29,0,1,1-8.263,8.29A8.276,8.276,0,0,1,663.639,1992.79Zm-24.519,27.63a8.29,8.29,0,1,1-8.263,8.29A8.276,8.276,0,0,1,639.12,2020.42Zm24.519,0a8.29,8.29,0,1,1-8.263,8.29A8.276,8.276,0,0,1,663.639,2020.42Zm27.578-27.63a8.29,8.29,0,1,1-8.263,8.29A8.276,8.276,0,0,1,691.217,1992.79Zm24.519,0a8.29,8.29,0,1,1-8.263,8.29A8.276,8.276,0,0,1,715.736,1992.79Zm-24.519,27.63a8.29,8.29,0,1,1-8.263,8.29A8.276,8.276,0,0,1,691.217,2020.42Zm24.519,0a8.29,8.29,0,1,1-8.263,8.29A8.276,8.276,0,0,1,715.736,2020.42Z" transform="translate(-630.844 -1992.78)"/>
</svg>
